<svg xmlns="http://www.w3.org/2000/svg" version="1.1" xmlns:xlink="http://www.w3.org/1999/xlink" xmlns:svgjs="http://svgjs.dev/svgjs" width="2000" height="1247" viewBox="0 0 2000 1247"><g transform="matrix(1,0,0,1,-1.2121212121212466,0.5048582995951847)"><svg viewBox="0 0 396 247" data-background-color="#ffffff" preserveAspectRatio="xMidYMid meet" height="1247" width="2000" xmlns="http://www.w3.org/2000/svg" xmlns:xlink="http://www.w3.org/1999/xlink"><g id="tight-bounds" transform="matrix(1,0,0,1,0.2400000000000091,-0.09999999999999432)"><svg viewBox="0 0 395.52 247.2" height="247.2" width="395.52"><g><svg></svg></g><g><svg viewBox="0 0 395.52 247.2" height="247.2" width="395.52"><g transform="matrix(1,0,0,1,75.54432,67.39303939849624)"><svg viewBox="0 0 244.43135999999998 112.4139212030075" height="112.4139212030075" width="244.43135999999998"><g><svg viewBox="0 0 244.43135999999998 112.4139212030075" height="112.4139212030075" width="244.43135999999998"><g><svg viewBox="0 0 244.43135999999998 112.4139212030075" height="112.4139212030075" width="244.43135999999998"><g><svg viewBox="0 0 244.43135999999998 112.4139212030075" height="112.4139212030075" width="244.43135999999998"><g id="textblocktransform"><svg viewBox="0 0 244.43135999999998 112.4139212030075" height="112.4139212030075" width="244.43135999999998" id="textblock"><g><svg viewBox="0 0 244.43135999999998 112.4139212030075" height="112.4139212030075" width="244.43135999999998"><g transform="matrix(1,0,0,1,0,0)"><svg width="244.43135999999998" viewBox="0.95 -36 79.8 36.7" height="112.4139212030075" data-palette-color="#000000"><path d="M25.15-7.8L23.75 0 0.95 0 7.3-36 16.3-36 11.35-7.8 25.15-7.8ZM38 0.7L38 0.7Q27.6 0.7 27.6-6.5L27.6-6.5Q27.6-7.5 27.8-8.65L27.8-8.65 28.85-14.85Q29.7-19.65 33.27-22.23 36.85-24.8 42.75-24.8L42.75-24.8Q52.8-24.8 52.8-17.2L52.8-17.2Q52.8-16.1 52.6-14.8L52.6-14.8 52-11.25 36.75-11.25 36.55-10.1Q36.45-9.5 36.45-9L36.45-9Q36.45-6.25 39.7-6.25L39.7-6.25Q40.9-6.25 41.75-7 42.6-7.75 42.75-8.75L42.75-8.75 51.05-8.65Q49.4 0.7 38 0.7ZM37.25-14.3L44-14.3Q44.2-15.15 44.2-15.88 44.2-16.6 43.55-17.35 42.9-18.1 41.47-18.1 40.05-18.1 38.87-17.15 37.7-16.2 37.25-14.3L37.25-14.3ZM70.45-24.75L70.45-24.75Q75.84-24.75 78.59-22.4L78.59-22.4Q80.75-20.55 80.75-17.25L80.75-17.25Q80.75-16.15 80.5-14.85L80.5-14.85 79.45-9Q78.5-3.7 75.02-1.5 71.55 0.7 65.75 0.7 59.95 0.7 57.25-1.5L57.25-1.5Q55.25-3.15 55.25-6.45L55.25-6.45Q55.25-7.6 55.5-9L55.5-9 56.55-14.85Q58.3-24.75 70.45-24.75ZM71.15-10.1L71.8-13.85Q71.9-14.35 71.9-15.13 71.9-15.9 71.25-16.85 70.59-17.8 68.97-17.8 67.34-17.8 66.25-16.73 65.15-15.65 64.84-13.85L64.84-13.85 64.2-10.1Q64.09-9.6 64.09-8.83 64.09-8.05 64.75-7.15 65.4-6.25 67.02-6.25 68.65-6.25 69.75-7.38 70.84-8.5 71.15-10.1L71.15-10.1Z" opacity="1" transform="matrix(1,0,0,1,0,0)" fill="#000000" class="wordmark-text-0" data-fill-palette-color="primary" id="text-0"></path></svg></g></svg></g></svg></g></svg></g></svg></g></svg></g></svg></g><g><path d="M245.816 0c68.262 0 123.6 55.338 123.6 123.6 0 68.262-55.338 123.6-123.6 123.6-42.504 0-79.996-21.454-102.24-54.124l6.194 0c21.537 29.722 56.534 49.055 96.046 49.055 65.463 0 118.531-53.068 118.531-118.531 0-65.463-53.068-118.531-118.531-118.531-39.512 0-74.508 19.333-96.046 49.055h-6.194c22.244-32.67 59.736-54.124 102.24-54.124z" fill="#000000" stroke="transparent" data-fill-palette-color="tertiary"></path></g></svg></g><defs></defs></svg><rect width="395.52" height="247.2" fill="none" stroke="none" visibility="hidden"></rect></g></svg></g></svg>